# xmcd CD database file generated by OrangeCD 5.2
#
# Track frame offsets:
#	150
#	21213
#	38639
#	57591
#
# Disc length: 943 seconds
#
# Revision: 0
# Processed by: cddbd v1.5.1PL0 Copyright (c) Steve Scherf et al.
# Submitted via: OrangeCD 5.2
#
DISCID=2d03ad04
DTITLE=Panic - The REMIXES Featuring Pyx Lax
DYEAR=2000
DGENRE=Rock
TTITLE0=My Lonliness is everything - Main Mix
TTITLE1=Remind Me of Love - Main Mix
TTITLE2=My Lonliness is everything - Acoustic Mix
TTITLE3=Remind Me of Love - Acoustic Mix
EXTD=
EXTT0=
EXTT1=
EXTT2=
EXTT3=
PLAYORDER=
